<svg width="64" height="64" viewBox="0 0 64 64" fill="none" xmlns="http://www.w3.org/2000/svg">
<path fill-rule="evenodd" clip-rule="evenodd" d="M32 4.41797L55.8867 18.209V45.791L32 59.582L8.11328 45.791V18.209L32 4.41797ZM10.7934 19.7564V40.0161L28.3389 9.62649L10.7934 19.7564ZM32 8.6455L11.7744 43.6772H52.2256L32 8.6455ZM49.5455 46.3574H14.4545L32 56.4872L49.5455 46.3574ZM53.2066 40.0161L35.6611 9.62649L53.2066 19.7564V40.0161Z" fill="#E10098"/>
<path d="M31.9998 11.6102C35.1173 11.6102 37.6446 9.08289 37.6446 5.96536C37.6446 2.84782 35.1173 0.320557 31.9998 0.320557C28.8822 0.320557 26.355 2.84782 26.355 5.96536C26.355 9.08289 28.8822 11.6102 31.9998 11.6102Z" fill="#E10098"/>
<path d="M54.5467 24.6275C57.6642 24.6275 60.1915 22.1002 60.1915 18.9827C60.1915 15.8652 57.6642 13.3379 54.5467 13.3379C51.4291 13.3379 48.9019 15.8652 48.9019 18.9827C48.9019 22.1002 51.4291 24.6275 54.5467 24.6275Z" fill="#E10098"/>
<path d="M54.5467 50.6622C57.6642 50.6622 60.1915 48.1349 60.1915 45.0174C60.1915 41.8998 57.6642 39.3726 54.5467 39.3726C51.4291 39.3726 48.9019 41.8998 48.9019 45.0174C48.9019 48.1349 51.4291 50.6622 54.5467 50.6622Z" fill="#E10098"/>
<path d="M31.9998 63.6794C35.1173 63.6794 37.6446 61.1521 37.6446 58.0346C37.6446 54.917 35.1173 52.3898 31.9998 52.3898C28.8822 52.3898 26.355 54.917 26.355 58.0346C26.355 61.1521 28.8822 63.6794 31.9998 63.6794Z" fill="#E10098"/>
<path d="M9.44998 50.6622C12.5675 50.6622 15.0948 48.1349 15.0948 45.0174C15.0948 41.8998 12.5675 39.3726 9.44998 39.3726C6.33244 39.3726 3.80518 41.8998 3.80518 45.0174C3.80518 48.1349 6.33244 50.6622 9.44998 50.6622Z" fill="#E10098"/>
<path d="M9.44998 24.6275C12.5675 24.6275 15.0948 22.1002 15.0948 18.9827C15.0948 15.8652 12.5675 13.3379 9.44998 13.3379C6.33244 13.3379 3.80518 15.8652 3.80518 18.9827C3.80518 22.1002 6.33244 24.6275 9.44998 24.6275Z" fill="#E10098"/>
</svg>
