<svg width="64" height="64" viewBox="0 0 64 64" fill="none" xmlns="http://www.w3.org/2000/svg">
<path d="M62.79 38.3238C62.4179 37.197 61.4432 36.412 60.1825 36.2235C59.5881 36.1348 58.9073 36.1726 58.1018 36.3388C56.6977 36.6284 55.656 36.7386 54.8958 36.7601C57.7652 31.9152 60.0986 26.3903 61.4419 21.1895C63.6138 12.7802 62.4532 8.94924 61.0969 7.21627C57.5074 2.62981 52.2704 0.165731 45.9521 0.0901976C42.5819 0.0490627 39.6229 0.71453 38.0796 1.19296C36.6424 0.939554 35.0971 0.797946 33.4756 0.771718C30.4366 0.723273 27.7513 1.38573 25.4568 2.74734C24.1862 2.31793 22.1476 1.71237 19.7932 1.32582C14.2556 0.416696 9.79269 1.12516 6.52827 3.43129C2.57531 6.22359 0.742732 11.0749 1.0817 17.8507C1.1892 20.002 2.39271 26.5474 4.2875 32.755C5.37649 36.3228 6.53773 39.2858 7.73895 41.5622C9.4424 44.79 11.2651 46.691 13.3114 47.3735C14.4584 47.7558 16.5422 48.0232 18.7341 46.1981C19.0119 46.5343 19.3824 46.8687 19.8745 47.1791C20.4991 47.5732 21.263 47.8951 22.0258 48.0858C24.7752 48.7732 27.3505 48.6012 29.5476 47.6379C29.5611 48.0286 29.5715 48.402 29.5804 48.7244C29.595 49.2474 29.6094 49.76 29.6286 50.2395C29.7587 53.4818 29.9793 56.0028 30.6329 57.7666C30.6687 57.8638 30.717 58.0115 30.768 58.1682C31.0939 59.1666 31.6393 60.8378 33.0263 62.1468C34.4628 63.5025 36.2003 63.9185 37.7915 63.9183C38.5895 63.9183 39.351 63.8137 40.0188 63.6705C42.3996 63.1604 45.1033 62.383 47.0591 59.5981C48.9082 56.9654 49.8072 53.0001 49.9698 46.7519C49.9909 46.5753 50.0104 46.4066 50.0292 46.2458C50.0418 46.1373 50.0547 46.0264 50.0677 45.9157L50.5034 45.954L50.6157 45.9616C53.0405 46.0721 56.0053 45.5578 57.8262 44.7121C59.265 44.0443 63.8756 41.6103 62.79 38.3238Z" fill="black"/>
<path d="M58.6441 38.9631C51.4345 40.4503 50.9388 38.0093 50.9388 38.0093C58.5511 26.714 61.7332 12.3762 58.9871 8.86716C51.4954 -0.704933 38.5269 3.82205 38.3104 3.93958L38.2408 3.95205C36.8164 3.65637 35.2223 3.48022 33.4307 3.45098C30.1685 3.39752 27.6939 4.30621 25.8162 5.73016C25.8162 5.73016 2.68164 -3.80037 3.75759 17.7166C3.98648 22.2942 10.3185 52.3526 17.8711 43.2735C20.6316 39.9536 23.2988 37.1466 23.2988 37.1466C24.6236 38.0266 26.2095 38.4755 27.8721 38.3143L28.0012 38.2046C27.9611 38.6168 27.9794 39.02 28.053 39.4973C26.1073 41.6711 26.679 42.0528 22.7896 42.8534C18.8539 43.6645 21.1659 45.1085 22.6755 45.4859C24.5055 45.9436 28.7392 46.5918 31.5999 42.5873L31.4858 43.0442C32.2481 43.6548 32.7835 47.0159 32.6937 50.0628C32.604 53.1098 32.5441 55.2016 33.1448 56.8356C33.7455 58.4695 34.3442 62.1458 39.4572 61.0502C43.7296 60.1347 45.9436 57.762 46.2516 53.8043C46.4702 50.9907 46.9648 51.4066 46.9961 48.8911L47.3928 47.7002C47.8503 43.8861 47.4655 42.6557 50.0977 43.228L50.7373 43.2841C52.6747 43.3723 55.2103 42.9725 56.6984 42.2808C59.9029 40.7937 61.8035 38.3107 58.6438 38.9631H58.6441Z" fill="#336791"/>
<path d="M27.1703 19.7637C26.5207 19.6733 25.9322 19.757 25.6345 19.9823C25.467 20.1091 25.4152 20.2561 25.4013 20.3572C25.3639 20.6251 25.5517 20.9212 25.6669 21.074C25.9931 21.5064 26.4698 21.8037 26.9417 21.8692C27.01 21.8787 27.078 21.8832 27.1456 21.8832C27.9325 21.8832 28.6477 21.2707 28.7108 20.8185C28.7896 20.2522 27.9675 19.8747 27.1703 19.7637Z" fill="white"/>
<path d="M48.6938 19.7816C48.6319 19.3377 47.8417 19.2112 47.0921 19.3154C46.3437 19.4197 45.6177 19.7575 45.6784 20.2024C45.7271 20.5484 46.3516 21.139 47.0911 21.1389C47.1535 21.1389 47.2165 21.1348 47.28 21.1259C47.7737 21.0575 48.1358 20.744 48.3078 20.5633C48.57 20.2881 48.7215 19.9811 48.6938 19.7816Z" fill="white"/>
<path d="M61.0432 38.7941C60.7683 37.9628 59.8836 37.6952 58.4134 37.9989C54.0486 38.8997 52.4854 38.2757 51.972 37.8977C55.3649 32.729 58.1559 26.4816 59.6615 20.6523C60.3749 17.8911 60.7689 15.3268 60.801 13.2368C60.8365 10.9425 60.446 9.2568 59.64 8.22699C56.391 4.07538 51.6226 1.84851 45.8504 1.78731C41.8822 1.74274 38.5295 2.75835 37.8796 3.04386C36.5108 2.70346 35.0186 2.49449 33.3943 2.46783C30.4152 2.41967 27.8404 3.13287 25.7084 4.58649C24.7823 4.24193 22.3891 3.42038 19.4625 2.94898C14.4024 2.13416 10.3817 2.75147 7.51228 4.78428C4.08849 7.20995 2.50788 11.5459 2.81417 17.6714C2.91722 19.7324 4.09135 26.0722 5.94457 32.1438C8.38386 40.135 11.0353 44.659 13.8253 45.5895C14.1518 45.6984 14.5284 45.7747 14.9435 45.7747C15.9613 45.7747 17.2089 45.3159 18.5072 43.7552C20.6635 41.161 22.6769 38.9871 23.419 38.1973C24.5157 38.786 25.7204 39.1147 26.9529 39.1477C26.955 39.1799 26.9583 39.2122 26.9612 39.2443C26.7139 39.5375 26.5111 39.7945 26.3383 40.0139C25.4845 41.0978 25.3068 41.3234 22.5583 41.8894C21.7766 42.0506 19.7 42.4786 19.6697 43.9341C19.6366 45.5243 22.124 46.1922 22.4075 46.263C23.3952 46.5102 24.3466 46.6322 25.254 46.6322C27.461 46.632 29.4029 45.9068 30.955 44.5035C30.9071 50.1728 31.1436 55.7593 31.8243 57.4614C32.3817 58.8547 33.7437 62.2601 38.046 62.2599C38.677 62.2599 39.372 62.1865 40.1364 62.0226C44.6262 61.0599 46.5759 59.0756 47.3303 54.7006C47.7339 52.3625 48.4266 46.7791 48.7522 43.7843C49.4397 43.9987 50.3249 44.0969 51.2818 44.0967C53.2775 44.0967 55.5802 43.6728 57.0243 43.0024C58.6465 42.2491 61.5741 40.4002 61.0432 38.7941ZM50.3509 18.5563C50.336 19.4405 50.2143 20.2431 50.0853 21.081C49.9465 21.9821 49.8029 22.9137 49.7668 24.0447C49.7311 25.1453 49.8686 26.2896 50.0016 27.3961C50.2702 29.6312 50.5458 31.9323 49.4787 34.2029C49.3129 33.9083 49.1528 33.587 49.006 33.2311C48.8735 32.9096 48.5855 32.3932 48.1869 31.6784C46.6355 28.8965 43.0028 22.3817 44.8624 19.7233C45.4163 18.9318 46.822 18.1184 50.3509 18.5563ZM46.0736 3.57775C51.2454 3.69198 55.3364 5.62676 58.233 9.32803C60.4546 12.1671 58.0083 25.0851 50.9263 36.2295C50.8564 36.1407 50.7851 36.0509 50.7115 35.9589C50.6821 35.9221 50.6521 35.8847 50.6219 35.8468C52.4519 32.8245 52.094 29.8343 51.7755 27.183C51.6447 26.095 51.5211 25.0673 51.5525 24.1022C51.5851 23.0788 51.7204 22.2015 51.8511 21.353C52.012 20.3073 52.1756 19.2255 52.1304 17.95C52.1641 17.8163 52.1777 17.6582 52.1601 17.4706C52.0449 16.2474 50.6486 12.5873 47.8024 9.274C46.2457 7.46206 43.9753 5.43412 40.8754 4.06635C42.2087 3.79002 44.0322 3.53232 46.0736 3.57775ZM17.1334 42.6129C15.7031 44.3325 14.7153 44.003 14.3905 43.8948C12.274 43.1888 9.81842 38.7157 7.65332 31.6223C5.77989 25.4846 4.68502 19.3128 4.59845 17.5821C4.32483 12.1087 5.65161 8.29407 8.54209 6.24421C13.2461 2.90827 20.98 4.90496 24.0876 5.91771C24.0429 5.96171 23.9965 6.00299 23.9522 6.04771C18.8527 11.1979 18.9737 19.997 18.9862 20.5348C18.9858 20.7423 19.0031 21.0361 19.027 21.4403C19.1147 22.9202 19.278 25.6746 18.8419 28.794C18.4364 31.6926 19.3299 34.5298 21.2929 36.5779C21.4961 36.7899 21.7083 36.989 21.9274 37.1763C21.0535 38.1121 19.1546 40.1813 17.1334 42.6129ZM22.5828 35.3417C21.0006 33.691 20.2821 31.3948 20.6112 29.0414C21.0719 25.7461 20.9018 22.8763 20.8105 21.3345C20.7977 21.1188 20.7864 20.9298 20.7796 20.7806C21.5247 20.1201 24.977 18.2702 27.4389 18.8343C28.5626 19.0918 29.247 19.8567 29.5316 21.1727C31.0047 27.9855 29.7267 30.8251 28.6997 33.1068C28.4881 33.577 28.2881 34.0213 28.1173 34.4811L27.985 34.8364C27.6499 35.7349 27.3381 36.5702 27.1449 37.3635C25.4631 37.3584 23.8269 36.64 22.5828 35.3417ZM22.841 44.5297C22.3499 44.407 21.9082 44.1939 21.6491 44.0172C21.8655 43.9153 22.2507 43.7768 22.9188 43.6392C26.1521 42.9735 26.6513 42.5038 27.7417 41.1193C27.9919 40.8019 28.2752 40.442 28.6676 40.0037L28.6681 40.0032C29.2527 39.3487 29.52 39.4597 30.0049 39.6608C30.3979 39.8234 30.7806 40.3159 30.9358 40.858C31.0092 41.114 31.0917 41.6 30.8218 41.9779C28.5439 45.1672 25.2248 45.1263 22.841 44.5297ZM39.7619 60.2758C35.8065 61.1233 34.406 59.1051 33.4831 56.7979C32.8875 55.3083 32.5948 48.5916 32.8025 41.1743C32.8052 41.0755 32.7912 40.9802 32.7639 40.8906C32.7403 40.7177 32.7039 40.5427 32.6534 40.3665C32.3444 39.2873 31.5918 38.3844 30.6888 38.0102C30.3301 37.8616 29.6715 37.5888 28.8802 37.7912C29.049 37.0959 29.3417 36.3109 29.6589 35.4607L29.792 35.103C29.942 34.6998 30.1299 34.2821 30.3288 33.8401C31.4035 31.4526 32.8753 28.1826 31.2779 20.7951C30.6795 18.0281 28.6815 16.677 25.6526 16.9907C23.8367 17.1786 22.1755 17.9113 21.3469 18.3314C21.1688 18.4217 21.0058 18.5088 20.8536 18.5938C21.0848 15.8058 21.9586 10.5958 25.2271 7.29938C27.2848 5.22401 30.0255 4.19908 33.3648 4.25426C39.9442 4.36204 44.1633 7.73854 46.5444 10.5522C48.5961 12.9769 49.7072 15.4191 50.1506 16.7363C46.8161 16.3974 44.5483 17.0557 43.3985 18.6992C40.8974 22.2743 44.7668 29.2137 46.6265 32.5486C46.9675 33.1599 47.2619 33.688 47.3545 33.9125C47.96 35.3802 48.744 36.3599 49.3165 37.0753C49.4919 37.2944 49.6622 37.507 49.7916 37.6926C48.7817 37.9838 46.9676 38.6565 47.1329 42.0191C46.9996 43.7065 46.0513 51.6061 45.5698 54.3971C44.934 58.0843 43.5771 59.4578 39.7619 60.2758ZM56.272 41.382C55.2393 41.8614 53.5111 42.221 51.8693 42.2981C50.0559 42.3831 49.1329 42.095 48.9157 41.9179C48.8137 39.8224 49.5938 39.6034 50.4192 39.3717C50.5489 39.3351 50.6755 39.2997 50.7976 39.257C50.8736 39.3188 50.9567 39.3801 51.0477 39.4402C52.5052 40.4022 55.1049 40.506 58.7748 39.7485C58.7882 39.7456 58.8017 39.743 58.815 39.7403C58.3201 40.2031 57.4731 40.8243 56.272 41.382Z" fill="white"/>
</svg>
