<svg width="64" height="64" viewBox="0 0 64 64" fill="none" xmlns="http://www.w3.org/2000/svg">
<g clip-path="url(#clip0_151_134)">
<path d="M55.0975 35.5674C53.0869 35.5686 51.1032 36.0297 49.2982 36.9154C48.7281 35.9801 48.2894 34.9707 47.9946 33.9157C47.8288 33.0845 47.7913 32.2327 47.8835 31.3901C48.0666 30.4654 48.3141 29.5547 48.6242 28.6645C48.6242 28.5534 48.4835 28.0053 47.2021 27.9905C45.9208 27.9757 44.8024 28.2423 44.6765 28.5756C44.4524 29.1993 44.2717 29.8378 44.1358 30.4865C43.9136 31.6641 41.5584 35.8266 40.2252 38.0115C39.8146 37.3219 39.5147 36.5721 39.3364 35.7896C39.1705 34.9583 39.133 34.1066 39.2253 33.2639C39.4084 32.3393 39.6559 31.4285 39.9659 30.5383C39.9659 30.4272 39.8252 29.8791 38.5439 29.8643C37.2625 29.8495 36.1442 30.1162 36.0183 30.4494C35.8924 30.7827 35.759 31.5901 35.4776 32.3603C35.1961 33.1306 32.0928 40.0854 31.2781 41.9C30.8633 42.8258 30.5374 43.559 30.2411 44.0627C29.9449 44.5663 30.2411 44.0997 30.2041 44.1516L29.856 44.8107C29.7588 45.05 29.6035 45.2613 29.4042 45.4255C29.2444 44.7735 29.2444 44.0926 29.4042 43.4405C29.8634 41.026 30.9892 37.2635 30.9818 37.1302C31.0074 37.0116 31.0083 36.889 30.9843 36.77C30.9604 36.6511 30.9121 36.5384 30.8426 36.439C30.7731 36.3396 30.6837 36.2556 30.5803 36.1922C30.4768 36.1289 30.3613 36.0877 30.2411 36.071C30.0268 35.9663 29.7851 35.9315 29.5499 35.9713C29.3148 36.0112 29.098 36.1238 28.9302 36.2932C28.8591 36.3391 28.8086 36.4108 28.7895 36.4932C28.7895 36.4932 29.8042 32.2566 26.849 32.2566C24.9973 32.2566 22.4494 34.2712 21.1829 36.1081L16.8797 38.4559C16.1909 38.8337 15.4799 39.1966 14.8059 39.5965L14.6652 39.4484C11.0878 35.634 4.47374 32.9381 4.74779 27.8127C4.85148 25.9463 5.48846 21.0357 17.45 15.0883C27.2415 10.2148 35.0776 11.5479 36.4404 14.5254C38.3809 18.7767 32.2557 26.6795 22.0791 27.8127C18.2055 28.2497 16.1539 26.7536 15.6503 26.1907C15.1466 25.6278 15.0355 25.5759 14.8355 25.687C14.5096 25.8648 14.7096 26.3907 14.8355 26.7017C15.2285 27.4062 15.7586 28.0248 16.3947 28.5209C17.0308 29.0171 17.7598 29.3807 18.5388 29.5903C20.3978 30.205 24.9529 30.5383 30.4559 28.4126C36.6182 26.0277 41.4324 19.3989 40.0178 13.8588C38.6031 8.31868 29.2264 6.37076 20.3904 9.51114C15.1244 11.385 9.42873 14.3106 5.3255 18.1472C0.451987 22.6948 -0.325702 26.6721 0.00018584 28.3238C1.14079 34.249 9.25097 38.0486 12.5024 40.9149L12.0507 41.1667C10.4286 41.9666 4.23674 45.2033 2.68877 48.6325C0.940821 52.5062 2.96281 55.2984 4.3108 55.6688C8.4881 56.8316 12.7617 54.7429 15.0725 51.3063C17.3834 47.8697 17.0945 43.4035 16.0354 41.3667L15.9983 41.2926L17.2723 40.552C18.0944 40.0632 18.9091 39.6114 19.6202 39.2262C19.1442 40.5973 18.8625 42.0284 18.7832 43.4776C18.6055 45.6995 19.5239 48.5288 20.6941 49.6546C21.1206 50.0201 21.6747 50.2013 22.2346 50.1583C23.6123 50.1583 24.2344 49.0177 24.9232 47.6549C25.775 45.9958 26.5231 44.0701 26.5231 44.0701C26.5231 44.0701 25.5824 49.2547 28.1451 49.2547C29.0857 49.2547 30.0189 48.04 30.4485 47.4179L30.5226 47.2919L30.6707 47.0549C31.0484 46.4032 31.8854 44.9144 33.1371 42.4555C34.7517 39.2781 36.2997 35.3082 36.2997 35.3082C36.4545 36.1785 36.6598 37.0391 36.9144 37.8856C37.2941 38.9142 37.7419 39.9163 38.255 40.8853C37.8773 41.4112 37.6551 41.7074 37.6551 41.7074C37.3588 42.1074 37.0181 42.5295 36.67 42.9591C35.5881 44.1456 34.586 45.4026 33.6704 46.7216C33.5331 46.9433 33.4851 47.2088 33.536 47.4644C33.5868 47.7201 33.7328 47.947 33.9444 48.0993C34.4286 48.3532 34.9827 48.4417 35.522 48.3511C36.3299 48.3076 37.1243 48.1247 37.8699 47.8104C38.5903 47.554 39.2709 47.1975 39.8919 46.7513C40.5309 46.3103 41.0453 45.7118 41.3853 45.0137C41.7253 44.3156 41.8793 43.5416 41.8324 42.7665C41.7592 41.7911 41.5082 40.8372 41.0917 39.9521C41.2028 39.7891 41.3139 39.6262 41.4325 39.4484C42.7333 37.5062 43.9036 35.4798 44.9357 33.3824C45.0906 34.2528 45.2958 35.1134 45.5505 35.9599C45.863 36.8475 46.2443 37.7093 46.6911 38.5374C45.1919 39.7026 44.0164 41.2326 43.2767 42.9813C42.536 45.107 43.1137 46.0699 44.2025 46.2921C44.7936 46.3305 45.3843 46.2103 45.9134 45.944C46.6882 45.6895 47.418 45.3146 48.0761 44.833C49.3278 43.9071 50.5277 42.611 50.461 40.8853C50.4064 40.0813 50.2239 39.2913 49.9203 38.5448C51.8873 37.7633 54.0239 37.5081 56.1196 37.8042C61.6819 38.4559 62.7855 41.9296 62.5707 43.3813C62.4724 43.9001 62.2642 44.3919 61.9602 44.8237C61.6561 45.2555 61.2633 45.6172 60.808 45.8847C60.4228 46.1217 60.2969 46.2106 60.3339 46.3883C60.371 46.5661 60.5561 46.6402 60.8968 46.5883C61.7329 46.3258 62.4695 45.8156 63.0091 45.1252C63.5487 44.4348 63.8659 43.5968 63.9187 42.7221C64.0669 39.2855 60.808 35.5303 55.0309 35.5674H55.0975ZM12.1914 50.0324C10.3546 52.047 7.74744 52.8098 6.66608 52.1581C5.58472 51.5063 5.92544 48.5066 8.20666 46.3661C9.55084 45.1561 11.0037 44.0727 12.5469 43.1295L13.6875 42.4407L13.8134 42.3666L14.1023 42.1888C14.5098 43.5463 14.5482 44.9879 14.2137 46.3651C13.8791 47.7424 13.1836 49.0057 12.1988 50.025L12.1914 50.0324ZM25.6343 40.8927C24.9973 42.4555 23.6493 46.4698 22.8346 46.2402C22.1309 46.0551 21.7088 43.0184 22.6938 40.0113C23.207 38.5594 23.9579 37.2028 24.9158 35.997C25.9305 34.8712 27.0267 34.5157 27.3007 34.96C27.5896 35.5674 26.0268 39.915 25.6269 40.8927H25.6343ZM36.7441 46.1958C36.5618 46.3324 36.3327 46.391 36.1071 46.3587C36.0183 46.3069 36.2182 46.1217 36.2182 46.1217C36.2182 46.1217 37.6032 44.6404 38.1587 43.9442C38.4698 43.5442 38.8476 43.085 39.2475 42.5592V42.7073C39.2475 44.5071 37.5218 45.707 36.7441 46.1958ZM45.2986 44.2479C45.0987 44.0997 45.1209 43.6331 45.8023 42.1814C46.2646 41.244 46.9121 40.41 47.7058 39.7299C47.8305 40.0741 47.8932 40.4377 47.8909 40.8038C47.8986 41.5867 47.6449 42.3498 47.17 42.9723C46.6951 43.5948 46.0262 44.041 45.269 44.2405L45.2986 44.2479Z" fill="#D0659B"/>
</g>
<defs>
<clipPath id="clip0_151_134">
<rect width="64" height="47.9722" fill="white" transform="translate(0 8.01501)"/>
</clipPath>
</defs>
</svg>
