<svg width="64" height="64" viewBox="0 0 64 64" fill="none" xmlns="http://www.w3.org/2000/svg">
<g clip-path="url(#clip0_149_44)">
<mask id="mask0_149_44" style="mask-type:luminance" maskUnits="userSpaceOnUse" x="5" y="15" width="54" height="33">
<path d="M5 15.5H59V47.9H5V15.5Z" fill="white"/>
</mask>
<g mask="url(#mask0_149_44)">
<path fill-rule="evenodd" clip-rule="evenodd" d="M32 15.5C24.8 15.5 20.3 19.1 18.5 26.3C21.2 22.7 24.35 21.35 27.95 22.25C30.004 22.763 31.472 24.254 33.097 25.903C35.744 28.59 38.808 31.7 45.5 31.7C52.7 31.7 57.2 28.1 59 20.9C56.3 24.5 53.15 25.85 49.55 24.95C47.496 24.437 46.028 22.946 44.403 21.297C41.756 18.61 38.692 15.5 32 15.5ZM18.5 31.7C11.3 31.7 6.8 35.3 5 42.5C7.7 38.9 10.85 37.55 14.45 38.45C16.504 38.964 17.972 40.454 19.597 42.103C22.244 44.79 25.308 47.9 32 47.9C39.2 47.9 43.7 44.3 45.5 37.1C42.8 40.7 39.65 42.05 36.05 41.15C33.996 40.637 32.528 39.146 30.903 37.497C28.256 34.81 25.192 31.7 18.5 31.7Z" fill="#38BDF8"/>
</g>
</g>
<defs>
<clipPath id="clip0_149_44">
<rect width="54" height="33" fill="white" transform="translate(5 15.5)"/>
</clipPath>
</defs>
</svg>
